# xmcd CD database file
# Generated: Sun Jul 15 16:40:28 2007 by KSCD
# 
# Track frame offsets:
#       150
#       14935
#       28882
#       41034
#       54562
#       66956
#       79572
#       91265
#       102628
#       116241
#       127872
#       138921
#       150445
#       163407
#       178493
#       192435
#       205673
#       215135
#
# Disc length: 3044 seconds
#
# Revision: 9
# Processed by: cddbd v1.5.2PL0 Copyright (c) Steve Scherf et al.
# Submitted via: Kscd 1.3.3
#
DISCID=120be212
DTITLE=st HitsGlen Campbell - Simply The Best Glen Campbell Southern Nights H
DTITLE=is Greate
DYEAR=1995
DGENRE=
TTITLE0=Rhinestone Cowboy
TTITLE1=Wichita Lineman
TTITLE2=Galveston
TTITLE3=Southern Nights
TTITLE4=By The Time I Get To Phoenix
TTITLE5=I Wanna Live
TTITLE6=Dreams Of The Everyday Housewife
TTITLE7=True Grit
TTITLE8=Honey Come Back
TTITLE9=All I Have To Do Is Dream (Duet With Bobbie Gentry)
TTITLE10=It's Only Make Believe
TTITLE11=Dream Baby
TTITLE12=Sunflower
TTITLE13=Don't Pull Your Love - Then You Can Tell Me Goodbye
TTITLE14=Country Boy
TTITLE15=Where's The Playground Susie
TTITLE16=Let It Be Me (Duet With Bobbie Gentry)
TTITLE17=Gentle On My Mind
EXTD=YEAR: 1995
EXTT0=
EXTT1=
EXTT2=
EXTT3=
EXTT4=
EXTT5=
EXTT6=
EXTT7=
EXTT8=
EXTT9=Duet with Bobbie Gentry
EXTT10=
EXTT11=(How long must I Dream)
EXTT12=
EXTT13=Then You Can Tell Me Goodbye
EXTT14=(You Got Your Feet In L.A.)
EXTT15=
EXTT16=Duet With Bobbie Gentry
EXTT17=
PLAYORDER=
